<svg width="21" height="16" viewBox="0 0 21 16" fill="none" xmlns="http://www.w3.org/2000/svg">
<path d="M17.5296 4.00989C17.0462 4.00766 16.5687 3.90419 16.1277 3.70612C15.6868 3.50804 15.2923 3.21974 14.9696 2.85986C14.7234 2.56929 14.4171 2.33568 14.0718 2.17511C13.7264 2.01454 13.3504 1.93084 12.9696 1.92987C12.5883 1.92812 12.2114 2.01056 11.8656 2.17133C11.5199 2.33209 11.2139 2.56719 10.9696 2.85986C10.6496 3.22188 10.2563 3.51178 9.81584 3.71033C9.37536 3.90887 8.89775 4.01154 8.41459 4.01154C7.93143 4.01154 7.45377 3.90887 7.01329 3.71033C6.57281 3.51178 6.17958 3.22188 5.8596 2.85986C5.61561 2.56614 5.30994 2.32977 4.96427 2.16754C4.61861 2.00531 4.24144 1.9212 3.8596 1.9212C3.47776 1.9212 3.10059 2.00531 2.75492 2.16754C2.40926 2.32977 2.10359 2.56614 1.8596 2.85986C1.7782 2.99112 1.66749 3.10174 1.53617 3.18304C1.40486 3.26435 1.25648 3.31413 1.1027 3.32849C0.948924 3.34285 0.793918 3.3214 0.649822 3.26581C0.505726 3.21022 0.376489 3.12197 0.272197 3.00806C0.167906 2.89414 0.0913724 2.75762 0.0486867 2.60919C0.00600095 2.46076 -0.0016783 2.30444 0.0261647 2.15253C0.0540077 2.00061 0.116658 1.85723 0.209209 1.73358C0.301761 1.60994 0.421699 1.50941 0.559612 1.43988C0.979967 0.985773 1.4896 0.623458 2.05662 0.375671C2.62364 0.127884 3.2358 0 3.85459 0C4.47339 0 5.08549 0.127884 5.65251 0.375671C6.21953 0.623458 6.72922 0.985773 7.14958 1.43988C7.64958 1.88988 7.84958 2.0799 8.39958 2.0799C8.94958 2.0799 9.15958 1.88988 9.64958 1.43988C10.0699 0.985773 10.5796 0.623458 11.1466 0.375671C11.7137 0.127884 12.3258 0 12.9446 0C13.5634 0 14.1755 0.127884 14.7425 0.375671C15.3096 0.623458 15.8193 0.985773 16.2396 1.43988C16.7396 1.88988 16.9496 2.0799 17.4996 2.0799C18.0496 2.0799 18.2496 1.88988 18.7496 1.43988C18.9485 1.24728 19.1588 1.06697 19.3796 0.899902C19.5857 0.753812 19.8395 0.691156 20.0899 0.724548C20.3404 0.757941 20.5689 0.884898 20.7296 1.0799C20.8757 1.28603 20.9383 1.53984 20.9049 1.79028C20.8716 2.04072 20.7446 2.26921 20.5496 2.42987C20.3696 2.56987 20.2096 2.71986 20.0496 2.85986C19.7326 3.21622 19.3447 3.50255 18.9108 3.70056C18.4769 3.89857 18.0065 4.00394 17.5296 4.00989Z" fill="#3A3A3A"/>
<path d="M17.2197 9.56991C16.7377 9.56815 16.2615 9.46484 15.8221 9.26669C15.3827 9.06854 14.9901 8.77998 14.6697 8.41989C14.4267 8.12459 14.1213 7.88682 13.7755 7.72354C13.4297 7.56025 13.0521 7.47555 12.6697 7.47555C12.2873 7.47555 11.9096 7.56025 11.5638 7.72354C11.218 7.88682 10.9127 8.12459 10.6697 8.41989C10.3497 8.7819 9.95644 9.0718 9.51596 9.27035C9.07548 9.4689 8.59787 9.57156 8.11472 9.57156C7.63156 9.57156 7.15389 9.4689 6.71341 9.27035C6.27293 9.0718 5.8797 8.7819 5.55972 8.41989C5.31451 8.12749 5.0086 7.89196 4.66324 7.72964C4.31787 7.56732 3.94133 7.48209 3.55972 7.47988C3.0709 7.4661 2.59055 7.60987 2.18967 7.88992C2.01144 8.02319 1.79019 8.08571 1.56857 8.06539C1.34696 8.04508 1.14074 7.94339 0.989715 7.77993L0.889678 7.6799C0.804171 7.58535 0.739769 7.47371 0.700653 7.35238C0.661536 7.23105 0.648629 7.10279 0.662811 6.9761C0.676992 6.84941 0.717892 6.7272 0.782867 6.61752C0.847842 6.50784 0.935406 6.41323 1.0397 6.33993C1.77251 5.81277 2.65725 5.5389 3.55972 5.5599C4.17686 5.55992 4.78738 5.68688 5.35336 5.93289C5.91935 6.17889 6.42868 6.53868 6.8497 6.98989C7.3897 7.47989 7.5797 7.63992 8.0997 7.63992C8.6197 7.63992 8.85971 7.44989 9.35971 6.98989C9.78163 6.53844 10.2918 6.17854 10.8586 5.93246C11.4254 5.68638 12.0368 5.55935 12.6547 5.55935C13.2726 5.55935 13.884 5.68638 14.4508 5.93246C15.0176 6.17854 15.5278 6.53844 15.9497 6.98989C16.4497 7.44989 16.6497 7.63992 17.1997 7.63992C17.7497 7.63992 17.9597 7.44989 18.4497 6.98989C18.6497 6.80989 18.8497 6.62992 19.0797 6.45992C19.1713 6.33543 19.2906 6.23386 19.4281 6.16323C19.5656 6.0926 19.7176 6.05479 19.8722 6.05282C20.0268 6.05085 20.1797 6.08478 20.319 6.15188C20.4583 6.21898 20.5801 6.31742 20.6749 6.43954C20.7697 6.56165 20.8349 6.70406 20.8654 6.85562C20.8959 7.00718 20.8908 7.16375 20.8506 7.31301C20.8103 7.46228 20.736 7.6002 20.6335 7.71591C20.531 7.83162 20.403 7.92196 20.2597 7.97988C20.0841 8.11614 19.9171 8.26309 19.7597 8.41989C19.4392 8.77728 19.048 9.06413 18.6107 9.26211C18.1734 9.46009 17.6997 9.5649 17.2197 9.56991Z" fill="#3A3A3A"/>
<path d="M17.5298 15.1199C17.0465 15.1176 16.5689 15.0142 16.128 14.8161C15.687 14.618 15.2925 14.3298 14.9698 13.9699C14.7237 13.6793 14.4173 13.4457 14.072 13.2851C13.7267 13.1245 13.3507 13.0409 12.9698 13.0399C12.5886 13.0382 12.2116 13.1206 11.8659 13.2814C11.5202 13.4421 11.2142 13.6772 10.9698 13.9699C10.6489 14.3322 10.2548 14.6222 9.81352 14.8208C9.37222 15.0194 8.89377 15.1221 8.40983 15.1221C7.92589 15.1221 7.44745 15.0194 7.00615 14.8208C6.56484 14.6222 6.17073 14.3322 5.84983 13.9699C5.60547 13.6772 5.2995 13.4421 4.95378 13.2814C4.60805 13.1206 4.2311 13.0382 3.84983 13.0399C3.46901 13.0409 3.09292 13.1245 2.7476 13.2851C2.40229 13.4457 2.09599 13.6793 1.84983 13.9699C1.76843 14.1012 1.65772 14.2117 1.52641 14.293C1.39509 14.3743 1.24672 14.4241 1.09294 14.4385C0.939158 14.4528 0.784152 14.4314 0.640056 14.3758C0.49596 14.3202 0.366723 14.232 0.262432 14.1181C0.15814 14.0042 0.0816068 13.8676 0.0389211 13.7192C-0.00376468 13.5707 -0.0114439 13.4145 0.0163991 13.2626C0.0442421 13.1107 0.106892 12.9672 0.199444 12.8436C0.291995 12.7199 0.411933 12.6194 0.549846 12.5499C0.970202 12.0958 1.47989 11.7334 2.04692 11.4857C2.61394 11.2379 3.22603 11.11 3.84483 11.11C4.46363 11.11 5.07572 11.2379 5.64274 11.4857C6.20976 11.7334 6.71946 12.0958 7.13981 12.5499C7.63981 12.9999 7.83981 13.1899 8.38981 13.1899C8.93981 13.1899 9.14981 12.9999 9.63981 12.5499C10.0602 12.0958 10.5699 11.7334 11.1369 11.4857C11.7039 11.2379 12.3161 11.11 12.9349 11.11C13.5537 11.11 14.1657 11.2379 14.7328 11.4857C15.2998 11.7334 15.8095 12.0958 16.2298 12.5499C16.7298 12.9999 16.9398 13.1899 17.4898 13.1899C18.0398 13.1899 18.2398 12.9999 18.7398 12.5499C18.9332 12.3699 19.1432 12.1899 19.3699 12.0099C19.5725 11.9289 19.7962 11.9164 20.0066 11.9744C20.217 12.0324 20.4026 12.1577 20.5352 12.3311C20.6678 12.5044 20.7401 12.7164 20.7409 12.9347C20.7417 13.153 20.6711 13.3655 20.5398 13.5399C20.3598 13.6799 20.1998 13.8299 20.0498 13.9699C19.7309 14.3239 19.3426 14.6086 18.9092 14.8064C18.4757 15.0042 18.0062 15.1109 17.5298 15.1199Z" fill="#3A3A3A"/>
</svg>
