<svg width="24" height="24" viewBox="0 0 24 24" fill="none" xmlns="http://www.w3.org/2000/svg">
<path d="M17.56 11.1394C17.3366 11.0196 17.076 10.9891 16.831 11.054C16.5859 11.119 16.3747 11.2747 16.24 11.4895L9.92 22.4895C9.84489 22.638 9.80801 22.8028 9.81273 22.9692C9.81746 23.1355 9.86362 23.2981 9.94704 23.4421C10.0305 23.5861 10.1485 23.707 10.2905 23.7938C10.4324 23.8807 10.5938 23.9308 10.76 23.9395C10.9284 23.9343 11.0928 23.8867 11.2379 23.801C11.383 23.7154 11.5042 23.5944 11.59 23.4494L17.91 12.5095C18.0452 12.2814 18.0843 12.0089 18.0187 11.752C17.953 11.4951 17.7881 11.2747 17.56 11.1394ZM14.56 15.4094H1.89C1.67378 15.4636 1.48185 15.5885 1.34471 15.7642C1.20758 15.94 1.13311 16.1566 1.13311 16.3795C1.13311 16.6024 1.20758 16.8189 1.34471 16.9946C1.48185 17.1704 1.67378 17.2953 1.89 17.3494H14.53C14.7462 17.2953 14.9381 17.1704 15.0753 16.9946C15.2124 16.8189 15.2869 16.6024 15.2869 16.3795C15.2869 16.1566 15.2124 15.94 15.0753 15.7642C14.9381 15.5885 14.7462 15.4636 14.53 15.4094H14.56ZM10.31 15.8994L3.96001 4.97945C3.91432 4.83568 3.83668 4.70413 3.73293 4.59462C3.62918 4.48511 3.50198 4.40045 3.36089 4.34706C3.2198 4.29367 3.06846 4.27288 2.9182 4.28627C2.76794 4.29966 2.62267 4.34689 2.49324 4.4244C2.36382 4.5019 2.25361 4.60771 2.17086 4.73384C2.08811 4.85998 2.03498 5.00321 2.01543 5.15279C1.99588 5.30237 2.01042 5.45439 2.05797 5.59755C2.10552 5.74072 2.18484 5.87129 2.29 5.97945L8.61 16.9195C8.69676 17.0659 8.81943 17.1877 8.96642 17.2735C9.11341 17.3592 9.27986 17.406 9.45 17.4094C9.61877 17.41 9.78458 17.3651 9.93001 17.2794C10.0443 17.2124 10.1441 17.1234 10.2237 17.0175C10.3032 16.9116 10.361 16.791 10.3935 16.6626C10.4261 16.5342 10.4328 16.4007 10.4133 16.2697C10.3939 16.1387 10.3485 16.0128 10.28 15.8994H10.31ZM13.74 0.189471C13.5144 0.0675071 13.2506 0.0368398 13.0031 0.103839C12.7556 0.170837 12.5432 0.330367 12.41 0.549456L6.09001 11.4895C5.97106 11.714 5.94206 11.9755 6.00893 12.2207C6.0758 12.4658 6.2335 12.6764 6.45 12.8095C6.59543 12.8951 6.76124 12.94 6.93001 12.9395C7.0992 12.9371 7.265 12.8918 7.41191 12.8078C7.55883 12.7239 7.68204 12.604 7.77001 12.4594L14.09 1.51943C14.2103 1.29149 14.2378 1.02595 14.167 0.778155C14.0962 0.530359 13.9325 0.319481 13.71 0.189471H13.74ZM22.12 6.59944H9.45C9.30254 6.56249 9.14859 6.55961 8.99987 6.59108C8.85114 6.62255 8.71157 6.68757 8.59172 6.78108C8.47188 6.8746 8.37493 6.9942 8.30825 7.13082C8.24156 7.26743 8.2069 7.41746 8.2069 7.56948C8.2069 7.72149 8.24156 7.87146 8.30825 8.00807C8.37493 8.14469 8.47188 8.26429 8.59172 8.35781C8.71157 8.45132 8.85114 8.51634 8.99987 8.54781C9.14859 8.57928 9.30254 8.5764 9.45 8.53945H22.14C22.3562 8.48526 22.5482 8.36039 22.6853 8.18465C22.8224 8.00891 22.8969 7.79239 22.8969 7.56948C22.8969 7.34656 22.8224 7.12998 22.6853 6.95424C22.5482 6.7785 22.3562 6.65364 22.14 6.59944H22.12ZM21.72 18.0294L15.4 7.08943C15.3524 6.94802 15.2738 6.81907 15.1699 6.71199C15.066 6.60491 14.9394 6.52241 14.7995 6.4706C14.6596 6.41879 14.5098 6.39897 14.3612 6.41255C14.2126 6.42613 14.069 6.47277 13.9408 6.54909C13.8125 6.62541 13.703 6.72945 13.6202 6.85359C13.5374 6.97774 13.4835 7.11886 13.4623 7.26656C13.4412 7.41426 13.4533 7.56478 13.4979 7.70717C13.5425 7.84956 13.6184 7.98018 13.72 8.08943L20.01 18.9794C20.1657 19.1468 20.3741 19.2559 20.6004 19.2883C20.8267 19.3207 21.0573 19.2746 21.2537 19.1577C21.4502 19.0407 21.6006 18.86 21.68 18.6456C21.7594 18.4313 21.7629 18.1961 21.69 17.9794L21.72 18.0294ZM12.02 22.0294C10.0422 22.0294 8.1088 21.4429 6.46431 20.3441C4.81982 19.2453 3.53808 17.6835 2.78121 15.8563C2.02433 14.029 1.82629 12.0184 2.21215 10.0786C2.598 8.13876 3.55041 6.35692 4.94893 4.95839C6.34746 3.55987 8.1293 2.60743 10.0691 2.22158C12.0089 1.83572 14.0196 2.03379 15.8469 2.79067C17.6741 3.54754 19.2359 4.82928 20.3347 6.47377C21.4335 8.11826 22.02 10.0516 22.02 12.0294C21.9937 14.674 20.926 17.2017 19.0484 19.0643C17.1708 20.9269 14.6347 21.9743 11.99 21.9794L12.02 22.0294ZM20.49 3.51943C18.5275 1.5547 15.9442 0.331479 13.1807 0.0582453C10.4172 -0.214988 7.64443 0.478709 5.33513 2.02108C3.02584 3.56344 1.32294 5.85896 0.516773 8.51638C-0.289394 11.1738 -0.148926 14.0286 0.914203 16.594C1.97733 19.1595 3.89731 21.2767 6.34685 22.585C8.7964 23.8932 11.6239 24.3114 14.3472 23.7682C17.0706 23.225 19.5212 21.7541 21.2815 19.6062C23.0417 17.4583 24.0024 14.7665 24 11.9895C24.0031 10.4116 23.6917 8.849 23.0839 7.39296C22.4761 5.93692 21.5841 4.61674 20.46 3.50948L20.49 3.51943Z" fill="#3A3A3A"/>
</svg>
