<svg width="25" height="26" viewBox="0 0 25 26" fill="none" xmlns="http://www.w3.org/2000/svg">
<path d="M10.4137 15.46C10.1563 15.4589 9.9091 15.3586 9.72373 15.1799L0.263703 5.70996C0.142021 5.57756 0.0582896 5.41482 0.0213326 5.23883C-0.0156245 5.06284 -0.00440047 4.88013 0.0537422 4.70996C0.129717 4.5357 0.253778 4.38672 0.411408 4.28046C0.569038 4.17419 0.753719 4.11506 0.943757 4.10999H19.8737C20.059 4.1226 20.237 4.18649 20.3879 4.29456C20.5388 4.40262 20.6567 4.5506 20.7284 4.72186C20.8 4.89313 20.8225 5.08094 20.7934 5.26428C20.7644 5.44763 20.6848 5.61924 20.5638 5.75995L11.0937 15.23C10.9033 15.3882 10.661 15.4701 10.4137 15.46ZM3.27371 5.98993L10.4137 13.1299L17.5437 5.98993H3.27371Z" fill="#3A3A3A"/>
<path d="M15.3237 25.26H5.53375C5.38544 25.3003 5.22985 25.3058 5.07904 25.2763C4.92823 25.2467 4.78628 25.1828 4.66418 25.0894C4.54209 24.9961 4.4431 24.8758 4.375 24.7381C4.3069 24.6003 4.27148 24.4487 4.27148 24.295C4.27148 24.1413 4.3069 23.9897 4.375 23.8519C4.4431 23.7141 4.54209 23.5939 4.66418 23.5006C4.78628 23.4072 4.92823 23.3433 5.07904 23.3137C5.22985 23.2841 5.38544 23.2897 5.53375 23.33H15.3237C15.472 23.2897 15.6277 23.2841 15.7785 23.3137C15.9293 23.3433 16.0713 23.4072 16.1934 23.5006C16.3155 23.5939 16.4144 23.7141 16.4825 23.8519C16.5506 23.9897 16.586 24.1413 16.586 24.295C16.586 24.4487 16.5506 24.6003 16.4825 24.7381C16.4144 24.8758 16.3155 24.9961 16.1934 25.0894C16.0713 25.1828 15.9293 25.2467 15.7785 25.2763C15.6277 25.3058 15.472 25.3003 15.3237 25.26Z" fill="#3A3A3A"/>
<path d="M10.4139 24.83C10.1487 24.83 9.89435 24.7246 9.70681 24.537C9.51927 24.3495 9.4139 24.0952 9.4139 23.83V14.4399C9.3736 14.2916 9.36803 14.136 9.39761 13.9852C9.42719 13.8344 9.49115 13.6925 9.5845 13.5704C9.67784 13.4483 9.79804 13.3493 9.93581 13.2812C10.0736 13.2132 10.2252 13.1777 10.3789 13.1777C10.5326 13.1777 10.6842 13.2132 10.822 13.2812C10.9598 13.3493 11.08 13.4483 11.1734 13.5704C11.2667 13.6925 11.3306 13.8344 11.3602 13.9852C11.3898 14.136 11.3842 14.2916 11.3439 14.4399V23.83C11.3445 24.0835 11.2488 24.3278 11.0762 24.5134C10.9035 24.6991 10.6668 24.8122 10.4139 24.83Z" fill="#3A3A3A"/>
<path d="M18.9746 10.76C17.7235 10.7581 16.5117 10.3236 15.5446 9.52999C15.4051 9.46624 15.2822 9.37126 15.1853 9.25241C15.0884 9.13355 15.0201 8.99402 14.9857 8.84457C14.9514 8.69512 14.9519 8.53977 14.9871 8.39053C15.0224 8.24129 15.0915 8.10217 15.1892 7.98391C15.2868 7.86565 15.4103 7.77142 15.5501 7.70852C15.69 7.64562 15.8424 7.6157 15.9957 7.62112C16.1489 7.62654 16.2989 7.66714 16.4339 7.73977C16.569 7.8124 16.6855 7.91514 16.7746 8.04C17.2012 8.3924 17.7064 8.63698 18.2474 8.75314C18.7884 8.86929 19.3495 8.85358 19.8832 8.70736C20.4169 8.56114 20.9076 8.28868 21.3139 7.91299C21.7201 7.5373 22.0301 7.06938 22.2176 6.54873C22.4051 6.02809 22.4645 5.46999 22.391 4.92154C22.3175 4.37308 22.1131 3.85037 21.7951 3.39749C21.4771 2.94461 21.0549 2.57483 20.564 2.31942C20.0731 2.06401 19.5279 1.93044 18.9746 1.92996C18.1224 1.92551 17.2991 2.23846 16.665 2.80783C16.0309 3.3772 15.6315 4.16223 15.5446 5.00997C15.5097 5.26279 15.3794 5.49273 15.1804 5.65261C14.9815 5.8125 14.729 5.89023 14.4746 5.86996C14.2254 5.83281 13.9995 5.70301 13.8419 5.5065C13.6843 5.30998 13.6067 5.06122 13.6246 4.80996C13.7348 3.77607 14.1421 2.79626 14.7974 1.98904C15.4528 1.18182 16.328 0.581815 17.3172 0.261562C18.3064 -0.0586912 19.3672 -0.0854467 20.3713 0.184535C21.3754 0.454518 22.2797 1.00964 22.9749 1.7828C23.6701 2.55596 24.1263 3.51402 24.2885 4.54104C24.4506 5.56807 24.3117 6.62007 23.8884 7.56979C23.4652 8.51951 22.7759 9.32625 21.9038 9.89242C21.0317 10.4586 20.0143 10.7599 18.9746 10.76Z" fill="#3A3A3A"/>
</svg>
