<svg width="18" height="23" viewBox="0 0 18 23" fill="none" xmlns="http://www.w3.org/2000/svg">
<path d="M14.77 22.82H3.06006C2.24758 22.8174 1.46933 22.4927 0.895752 21.9173C0.322176 21.3418 -4.31028e-06 20.5625 0 19.75V8.16998C0 7.35842 0.322501 6.58009 0.896362 6.00623C1.47022 5.43236 2.2485 5.10999 3.06006 5.10999H14.77C15.5808 5.11262 16.3576 5.43586 16.9309 6.00916C17.5042 6.58245 17.8274 7.35923 17.8301 8.16998V19.75C17.8301 20.5625 17.508 21.3418 16.9344 21.9173C16.3609 22.4927 15.5825 22.8174 14.77 22.82ZM3.06006 7.03998C2.76036 7.03998 2.4729 7.15906 2.26099 7.37097C2.04907 7.58289 1.93005 7.87029 1.93005 8.16998V19.75C1.93004 20.0506 2.04874 20.339 2.26038 20.5526C2.47201 20.7661 2.75945 20.8874 3.06006 20.89H14.77C15.0706 20.8874 15.3581 20.7661 15.5697 20.5526C15.7813 20.339 15.9 20.0506 15.9 19.75V8.16998C15.9 7.87029 15.781 7.58289 15.5691 7.37097C15.3572 7.15906 15.0697 7.03998 14.77 7.03998H3.06006Z" fill="#3A3A3A"/>
<path d="M12.3099 7.03998C12.0446 7.03998 11.7902 6.93461 11.6027 6.74707C11.4152 6.55953 11.3099 6.30519 11.3099 6.03998V2.88C11.3103 2.62486 11.2132 2.3792 11.0385 2.1933C10.8638 2.0074 10.6246 1.89531 10.3699 1.88H7.36992C7.11524 1.89531 6.87597 2.0074 6.70122 2.1933C6.52647 2.3792 6.4294 2.62486 6.42986 2.88V6.03998C6.47016 6.18829 6.4758 6.34388 6.44621 6.49469C6.41663 6.6455 6.35267 6.78751 6.25932 6.90961C6.16598 7.0317 6.04578 7.13063 5.90801 7.19873C5.77023 7.26683 5.61858 7.30225 5.46489 7.30225C5.3112 7.30225 5.15955 7.26683 5.02178 7.19873C4.884 7.13063 4.7638 7.0317 4.67046 6.90961C4.57711 6.78751 4.51315 6.6455 4.48357 6.49469C4.45399 6.34388 4.4595 6.18829 4.4998 6.03998V2.88C4.4998 2.11791 4.80195 1.38686 5.33989 0.847046C5.87783 0.307228 6.60783 0.00264616 7.36992 0H10.3699C11.132 0.00264616 11.8619 0.307228 12.3998 0.847046C12.9378 1.38686 13.2399 2.11791 13.2399 2.88V6.03998C13.2405 6.2935 13.1447 6.5378 12.9721 6.72345C12.7994 6.9091 12.5628 7.02223 12.3099 7.03998Z" fill="#3A3A3A"/>
</svg>
