<svg width="24" height="23" viewBox="0 0 24 23" fill="none" xmlns="http://www.w3.org/2000/svg">
<path d="M15.98 4.00949C15.7148 4.00949 15.4605 4.11486 15.2729 4.3024C15.0854 4.48993 14.98 4.74427 14.98 5.00949V21.0095C14.9397 21.1578 14.9342 21.3134 14.9637 21.4642C14.9933 21.615 15.0573 21.757 15.1506 21.8791C15.244 22.0012 15.3642 22.1001 15.502 22.1682C15.6397 22.2363 15.7914 22.2718 15.9451 22.2718C16.0988 22.2718 16.2503 22.2363 16.3881 22.1682C16.5258 22.1001 16.6462 22.0012 16.7395 21.8791C16.8328 21.757 16.8967 21.615 16.9263 21.4642C16.9559 21.3134 16.9503 21.1578 16.91 21.0095V5.00949C16.9107 4.75597 16.815 4.5117 16.6423 4.32605C16.4697 4.1404 16.2329 4.02724 15.98 4.00949ZM7.97998 0.00949097C7.71476 0.00949097 7.46049 0.114862 7.27295 0.302399C7.08541 0.489935 6.97998 0.744274 6.97998 1.00949V17.0095C6.93968 17.1578 6.93416 17.3134 6.96375 17.4642C6.99333 17.615 7.05729 17.757 7.15063 17.8791C7.24398 18.0012 7.36418 18.1001 7.50195 18.1682C7.63973 18.2363 7.79138 18.2718 7.94507 18.2718C8.09876 18.2718 8.25028 18.2363 8.38806 18.1682C8.52584 18.1001 8.64616 18.0012 8.7395 17.8791C8.83284 17.757 8.89669 17.615 8.92627 17.4642C8.95585 17.3134 8.95034 17.1578 8.91003 17.0095V1.00949C8.91066 0.755969 8.81499 0.511698 8.64233 0.32605C8.46968 0.140402 8.23288 0.0272368 7.97998 0.00949097ZM21.98 16.4295L15.91 19.8895L8.37 16.1195C8.23472 16.058 8.08861 16.024 7.94006 16.0195C7.77096 16.0163 7.60448 16.0614 7.46008 16.1495L1.90002 19.3195V5.53949L7.96997 2.06949L15.51 5.83951C15.6509 5.91149 15.8068 5.94901 15.965 5.94901C16.1232 5.94901 16.2792 5.91149 16.42 5.83951L21.98 2.65952V16.4295ZM23.4401 0.139496C23.288 0.0517275 23.1156 0.00552368 22.9401 0.00552368C22.7645 0.00552368 22.5921 0.0517275 22.4401 0.139496L15.88 3.8895L8.40002 0.109497C8.25915 0.037519 8.10326 0 7.94507 0C7.78687 0 7.63086 0.037519 7.48999 0.109497L0.48999 4.1095C0.34359 4.19625 0.221732 4.31895 0.135986 4.46594C0.0502406 4.61294 0.00345394 4.77935 0 4.94949V20.9495C0.00870973 21.1157 0.0587811 21.2771 0.14563 21.419C0.232479 21.561 0.353437 21.679 0.497437 21.7625C0.641436 21.8459 0.803864 21.892 0.970215 21.8968C1.13657 21.9015 1.30157 21.8646 1.45007 21.7895L8.01001 18.0495L15.55 21.8195C15.6841 21.8844 15.831 21.9186 15.98 21.9195C16.1491 21.9226 16.3157 21.8776 16.4601 21.7895L23.4601 17.7895C23.6065 17.7027 23.7282 17.5801 23.814 17.4331C23.8997 17.2861 23.9466 17.1196 23.9501 16.9495V0.949493C23.9438 0.786373 23.8976 0.627278 23.8157 0.486084C23.7337 0.34489 23.6185 0.225893 23.48 0.139496H23.4401Z" fill="#3A3A3A"/>
</svg>
