<svg width="35" height="12" viewBox="0 0 35 12" fill="none" xmlns="http://www.w3.org/2000/svg">
<path d="M33.455 11.53C33.2775 11.5259 33.1043 11.4747 32.9531 11.3815C32.802 11.2884 32.6784 11.1567 32.595 11L29.655 5.20996L27.655 7.51001C27.5002 7.6999 27.296 7.84333 27.0648 7.9245C26.8337 8.00567 26.5845 8.02139 26.345 7.96997C26.0875 7.90868 25.8521 7.77717 25.6649 7.59003C25.4778 7.40288 25.3463 7.16744 25.2851 6.90997L24.005 1.97998H10.6751L9.34499 6.82996C9.27833 7.10707 9.13044 7.35798 8.92018 7.55042C8.70993 7.74285 8.44698 7.86805 8.16506 7.90997C7.89612 7.94082 7.6241 7.88949 7.3849 7.76276C7.14571 7.63602 6.95047 7.4398 6.82497 7.19995L5.15505 4.28998L1.81502 10.84C1.69367 11.0635 1.49166 11.2325 1.25014 11.3124C1.00862 11.3923 0.745765 11.3771 0.515032 11.27C0.293205 11.1469 0.126399 10.9442 0.0484179 10.7029C-0.0295628 10.4615 -0.0128731 10.1995 0.0950487 9.96997L3.89504 2.48999C4.00642 2.26614 4.17531 2.07591 4.38442 1.93884C4.59353 1.80178 4.83534 1.72279 5.08504 1.70996C5.32836 1.71249 5.56647 1.78073 5.77419 1.90747C5.9819 2.03421 6.15149 2.21478 6.26503 2.42999L7.78505 5.07996L8.86501 1.07996C8.93933 0.778069 9.11073 0.508942 9.3528 0.313843C9.59487 0.118744 9.89419 0.00850073 10.205 0H24.395C24.7081 0.00565854 25.0103 0.116065 25.2532 0.31366C25.4961 0.511255 25.6657 0.784596 25.735 1.08997L26.885 5.40997L28.705 3.26996C28.8491 3.09889 29.0329 2.96569 29.2404 2.88202C29.4478 2.79835 29.6726 2.76676 29.895 2.78998C30.1232 2.81974 30.3404 2.90565 30.5271 3.04004C30.7139 3.17443 30.8643 3.35312 30.965 3.56L34.275 10.1C34.38 10.3284 34.3951 10.588 34.3173 10.8271C34.2394 11.0661 34.0743 11.2671 33.855 11.39C33.7352 11.4689 33.5978 11.517 33.455 11.53Z" fill="#3A3A3A"/>
</svg>
