<svg width="12" height="21" viewBox="0 0 12 21" fill="none" xmlns="http://www.w3.org/2000/svg">
<path fill-rule="evenodd" clip-rule="evenodd" d="M4.46072 1.65597C5.49711 0.595671 6.90275 0 8.36842 0H11.2105C11.6465 0 12 0.361616 12 0.807692V4.68462C12 5.13069 11.6465 5.49231 11.2105 5.49231H8.36842C8.32654 5.49231 8.28638 5.50933 8.25677 5.53962C8.22716 5.56992 8.21052 5.611 8.21052 5.65385V7.75385H11.2105C11.4536 7.75385 11.6832 7.86843 11.8328 8.06448C11.9824 8.26052 12.0354 8.51614 11.9764 8.75743L11.0291 12.6344C10.9412 12.9939 10.6254 13.2462 10.2632 13.2462H8.21052V20.1923C8.21052 20.6384 7.85706 21 7.42105 21H3.63158C3.19556 21 2.8421 20.6384 2.8421 20.1923V13.2462H0.789473C0.353459 13.2462 0 12.8845 0 12.4385V8.56154C0 8.11546 0.353459 7.75385 0.789473 7.75385H2.8421V5.65385C2.8421 4.15435 3.42434 2.71628 4.46072 1.65597ZM8.36842 1.61538C7.32151 1.61538 6.31748 2.04086 5.57721 2.79822C4.83693 3.55558 4.42105 4.58278 4.42105 5.65385V8.56154C4.42105 9.00762 4.06759 9.36923 3.63158 9.36923H1.57895V11.6308H3.63158C4.06759 11.6308 4.42105 11.9924 4.42105 12.4385V19.3846H6.63158V12.4385C6.63158 11.9924 6.98503 11.6308 7.42105 11.6308H9.64675L10.1994 9.36923H7.42105C6.98503 9.36923 6.63158 9.00762 6.63158 8.56154V5.65385C6.63158 5.18258 6.81456 4.73061 7.14028 4.39737C7.466 4.06413 7.90778 3.87692 8.36842 3.87692H10.421V1.61538H8.36842Z" fill="#E5E5E5"/>
</svg>
